<?xml version="1.0" encoding="UTF-8" standalone="no" ?>
<!DOCTYPE svg PUBLIC "-//W3C//DTD SVG 1.1//EN" "http://www.w3.org/Graphics/SVG/1.1/DTD/svg11.dtd">
<svg xmlns="http://www.w3.org/2000/svg" xmlns:xlink="http://www.w3.org/1999/xlink" version="1.1" width="1280" height="1024" viewBox="0 0 1280 1024" xml:space="preserve">
<desc>Created with Fabric.js 5.3.0</desc>
<defs>
</defs>
<g transform="matrix(1 0 0 1 640 512)" id="background-logo"  >
<rect style="stroke: none; stroke-width: 0; stroke-dasharray: none; stroke-linecap: butt; stroke-dashoffset: 0; stroke-linejoin: miter; stroke-miterlimit: 4; fill: rgb(0,0,0); fill-rule: nonzero; opacity: 1;"  paint-order="stroke"  x="-640" y="-512" rx="0" ry="0" width="1280" height="1024" />
</g>
<g transform="matrix(1 0 0 1 325.09887435351385 86.03392038021755)" id="tagline-fe696b19-b6c1-43f9-a7c0-38d4976add66-logo"  >
<g style=""  paint-order="stroke"   >
		<g transform="matrix(1 0 0 1 0 0)" id="tagline-fe696b19-b6c1-43f9-a7c0-38d4976add66-logo-path-0"  >
<path style="stroke: none; stroke-width: 0; stroke-dasharray: none; stroke-linecap: butt; stroke-dashoffset: 0; stroke-linejoin: miter; stroke-miterlimit: 4; fill: rgb(247,148,51); fill-rule: nonzero; opacity: 1;"  paint-order="stroke"  transform=" translate(0, 0)" d="" stroke-linecap="round" />
</g>
</g>
</g>
<g transform="matrix(3.8662972805748383 0 0 3.8662972805748383 640.5295801526717 512.5351546805947)" id="shape-f6c043fe-7641-4eb6-adc3-7c9e9e64ea67"  >
<g style=""  paint-order="stroke"   >
		<g transform="matrix(1 0 0 1 0 0)" id="Path-17"  >
<path style="stroke: none; stroke-width: 1; stroke-dasharray: none; stroke-linecap: butt; stroke-dashoffset: 0; stroke-linejoin: miter; stroke-miterlimit: 4; fill: rgb(255,170,0); fill-rule: nonzero; opacity: 1;"  paint-order="stroke"  transform=" translate(-120.40049534384825, -125)" d="M 114.89178 250 C 97.80602999999999 250 82.02642 246.10368 69.15690000000001 238.71924 C 69.05342 238.68480000000002 68.95054 238.64751 68.84826000000001 238.60735000000003 C 68.65995000000001 238.53319000000002 68.48126 238.46280000000002 68.30799 238.39257000000003 C 53.73104000000001 234.71027000000004 41.203250000000004 227.59402000000003 31.99407 217.76997000000003 C 10.09405 203.69253000000003 0.6821200000000012 181.31120000000004 6.161180000000002 156.23683000000003 C 8.965990000000001 143.44658000000004 15.437750000000001 130.61479000000003 24.62167 119.46897000000003 C 13.810930000000003 112.04107000000003 -1.251529999999999 99.68819000000002 0.08289000000000257 89.27666000000002 C 0.13041000000000258 88.44265000000001 0.2904600000000026 87.46756000000002 0.5461500000000026 86.47471000000002 C 0.5467500000000026 86.47200000000002 0.5473600000000026 86.46914000000001 0.5485500000000025 86.46645000000001 C 1.5695200000000025 82.22103000000001 5.492160000000002 72.04426000000001 19.845900000000004 69.08770000000001 C 24.211950000000005 68.18390000000001 29.653100000000002 67.72501000000001 36.01296000000001 67.72501000000001 C 46.379090000000005 67.72501000000001 57.358270000000005 68.93069000000001 64.46174 69.89164000000001 C 65.9604 68.52277000000001 68.11907000000001 66.86844 71.12242 65.20583 L 73.50909 61.340500000000006 C 74.82486 59.240500000000004 76.22967 57.01567000000001 77.74578 54.65381000000001 C 78.47676 53.51928000000001 79.22819 52.36685000000001 80.0055 51.18945000000001 C 81.3694 49.105700000000006 82.8079 46.94192000000001 84.30899 44.74071000000001 L 85.87624 42.43330000000001 C 86.33167999999999 41.77571000000001 86.76304999999999 41.15438000000001 87.19502 40.54537000000001 C 87.84058 39.60457000000001 88.56313 38.58947000000001 89.28689 37.57512000000001 C 92.22286 33.433630000000015 95.22019 29.416390000000014 98.18504 25.64867000000001 C 98.7259 24.96010000000001 99.28061 24.27981000000001 99.83772 23.59996000000001 C 99.96467 23.43390000000001 100.09643 23.26771000000001 100.2342 23.10166000000001 C 100.33648 22.95862000000001 100.44477 22.81965000000001 100.55969 22.68518000000001 C 113.2096 7.20981 122.86219 0 130.92827 0 C 131.57082 0 132.21095 0.04573 132.83124 0.13582 C 149.42305000000002 2.56039 168.9364 18.496589999999998 175.90511 24.610219999999998 C 177.32316 24.318279999999998 179.01915 24.08244 180.79758 24.08244 C 183.92185 24.08244 186.66048 24.79432 188.93706 26.198539999999998 C 190.91764 27.415339999999997 192.35253 29.133309999999998 193.10517000000002 31.183659999999996 C 193.19422 31.403249999999996 193.27062 31.629019999999997 193.33379000000002 31.860049999999998 C 194.10207000000003 34.55657 193.65326000000002 37.49825 192.06134000000003 40.16468 C 189.34076000000002 44.720839999999995 183.69203000000002 48.061249999999994 176.15598000000003 49.57075 C 173.87159000000003 50.02813999999999 171.55170000000004 50.26007 169.26008000000002 50.26007 C 167.17182000000003 50.26021 165.22854 50.07011 163.45072000000002 49.763419999999996 L 164.07761000000002 52.719539999999995 C 164.09867000000003 52.808589999999995 164.12876000000003 52.94423999999999 164.15944000000002 53.12143 C 164.16605 53.15437 164.23224000000002 53.487069999999996 164.25751000000002 53.64275 L 168.32213000000002 72.79451 C 171.07520000000002 75.5172 172.83858 78.16589 173.95882 80.33295 C 179.7363 80.28107 189.2114 79.88098 203.18973 78.39659 C 214.99074 77.14941 222.40467 74.87434 226.83388 73.51496 C 229.6417 72.65327 231.49652 72.08414 233.36338999999998 72.08414 C 236.54903 72.08414 238.37017999999998 73.76405000000001 239.17215 74.76547000000001 C 241.61356999999998 77.81394 240.76827999999998 81.59023 240.08903999999998 84.62456 C 238.88939 89.93818 234.99442 95.12876 228.78257 99.72824 C 226.58178999999998 105.13285 220.52337 118.20331 210.51820999999998 126.59638 C 216.91055999999998 135.95356999999998 221.40113999999997 146.08327 223.62176999999997 156.23579 C 228.55213999999998 178.7597 221.64599999999996 198.94131000000002 204.16978999999998 213.15321 C 194.11048999999997 226.18112 178.53425 235.44429 160.21334 239.27324 C 160.02924 239.31264 159.63154999999998 239.39055 159.62975 239.39115999999999 L 159.50461 239.43793 C 159.36923000000002 239.49057 159.23328 239.53826 159.09670000000003 239.58097 C 146.51178 246.40074 131.25919 250 114.89178 250 z" stroke-linecap="round" />
</g>
		<g transform="matrix(1 0 0 1 -5.498109564354635 -24.599405451709714)" id="Path-16"  >
<path style="stroke: none; stroke-width: 1; stroke-dasharray: none; stroke-linecap: butt; stroke-dashoffset: 0; stroke-linejoin: miter; stroke-miterlimit: 4; fill: rgb(71,60,86); fill-rule: nonzero; opacity: 1;"  paint-order="stroke"  transform=" translate(-114.90238577949361, -100.40059454829029)" d="M 223.0331 95.62155 C 223.0331 95.62155 222.98416999999998 95.74407 222.91072 95.97658 C 221.88248 98.74266 214.68504 117.06697 201.94269 124.72927 L 200.77982 124.68026 L 195.25934 124.47227000000001 L 194.08421 124.42325000000001 L 174.4015 123.67675000000001 L 171.3536 123.55422000000002 L 165.38023 123.32172000000001 L 92.15731000000001 120.50605000000002 L 80.51656000000001 120.06556000000002 L 78.46024000000001 119.98010000000002 L 73.08664000000002 119.77211000000003 L 67.83555000000001 119.57607000000003 L 58.936670000000014 119.23359000000004 L 58.31238000000001 119.20910000000003 L 54.199430000000014 119.05012000000004 L 50.07453000000001 118.89054000000003 L 46.08410000000001 118.74411000000003 L 40.894130000000004 118.53551000000003 L 34.41884 118.29106000000003 C 34.41884 118.29106000000003 34.41884 118.29106000000003 34.40659 118.27852000000003 C 33.65979 117.81352000000003 5.18844 99.88126000000003 6.840900000000001 90.14981000000003 C 6.840900000000001 90.14981000000003 6.840900000000001 90.10079000000003 6.853150000000001 90.01533000000003 C 6.853150000000001 89.74578000000004 6.914410000000001 89.12179000000003 7.134660000000001 88.26470000000003 C 7.146910000000001 88.24019000000003 7.146910000000001 88.20375000000003 7.159170000000001 88.16669000000003 C 8.823870000000001 81.88744000000003 19.41195 63.95517000000003 86.68584 89.02378000000003 C 89.51348 90.06434000000003 92.43881999999999 91.19038000000003 95.46233 92.40189000000004 L 123.16265999999999 93.09999000000003 L 138.25517 93.47951000000003 L 157.55849999999998 93.96901000000004 L 162.77298 94.10349000000004 L 192.07681 94.83805000000004 L 223.0331 95.62155 z" stroke-linecap="round" />
</g>
		<g transform="matrix(1 0 0 1 -5.6002503438482485 67.76092000000001)" id="Path-15_00000181047765062416625550000006962599632215352482_"  >
<rect style="stroke: none; stroke-width: 0; stroke-dasharray: none; stroke-linecap: butt; stroke-dashoffset: 0; stroke-linejoin: miter; stroke-miterlimit: 4; fill: rgb(104,44,0); fill-rule: nonzero; opacity: 1;"  paint-order="stroke"  x="-19.026205" y="-8.93496" rx="0" ry="0" width="38.05241" height="17.86992" />
</g>
		<g transform="matrix(1 0 0 1 -5.596455786187079 42.972950000000026)" id="Path-14_00000017477091009821191530000003329891089506825385_"  >
<path style="stroke: none; stroke-width: 1; stroke-dasharray: none; stroke-linecap: butt; stroke-dashoffset: 0; stroke-linejoin: miter; stroke-miterlimit: 4; fill: rgb(169,81,4); fill-rule: nonzero; opacity: 1;"  paint-order="stroke"  transform=" translate(-114.80403955766117, -167.97295000000003)" d="M 199.07837 208.28342 L 173.16339 226.5293 L 157.56285 232.74305 L 145.18306 236.12623000000002 L 168.91768000000002 209.05442000000002 L 81.80187000000002 211.27003000000002 L 65.21590000000002 211.69798000000003 L 74.07690000000002 232.57745000000003 L 70.45921000000003 231.83726000000001 L 62.033520000000024 228.77804 L 36.40180000000002 212.43254000000002 C 17.661480000000022 200.68150000000003 7.452920000000024 181.66026000000002 12.765270000000022 157.35014 C 15.862160000000022 143.22514 23.732880000000023 129.42944 34.40659000000002 118.27848 C 41.738660000000024 110.62816000000001 50.39280000000002 104.23894 59.732170000000025 99.81967 L 185.58928000000003 109.62463 L 185.63831000000002 109.62463 C 191.23223000000002 114.01877999999999 196.34876000000003 119.11104 200.77982000000003 124.68023 C 208.61371000000003 134.50970999999998 214.31786000000002 145.81965 216.83941000000004 157.35012 C 221.57646 178.99161 213.99957 196.43437 199.07837 208.28342 z" stroke-linecap="round" />
</g>
		<g transform="matrix(1 0 0 1 -5.682870343848251 38.166245)" id="Path-13_00000112627514011332402400000013016708183036032414_"  >
<path style="stroke: none; stroke-width: 1; stroke-dasharray: none; stroke-linecap: butt; stroke-dashoffset: 0; stroke-linejoin: miter; stroke-miterlimit: 4; fill: rgb(104,44,0); fill-rule: nonzero; opacity: 1;"  paint-order="stroke"  transform=" translate(-114.717625, -163.166245)" d="M 103.75852 163.64055 C 103.75852 172.71416 99.22906 179.30572999999998 92.47254000000001 182.69151 C 91.47931000000001 182.81126 90.47124000000001 182.87152 89.4479 182.87152 C 78.11692000000001 182.87152 68.92246 175.6635 68.92246 163.39954 C 68.92246 155.90569 72.35345 148.26119 77.62024 143.46097 C 82.8569 150.89459 92.06625 157.80211 103.74349 162.75295 C 103.75852 163.05347 103.75852 163.33928 103.75852 163.64055 z M 160.51279 163.5811 C 160.51279 175.73069999999998 151.40424 182.87152 140.1789 182.87152 C 139.07574 182.87152 138.00226 182.79729 136.95861 182.66334 C 130.30984999999998 179.29382 125.83755 172.77973 125.83755 163.81985 C 125.83755 163.5214 125.83755 163.23825 125.85248 162.94053 C 137.46559 158.00599 146.63384 151.13307 151.80676 143.72433 C 157.0692 148.49509 160.51279 156.09743 160.51279 163.5811 z M 121.40778 174.3246 C 120.89965000000001 176.16925 119.21523 177.61316 117.04938 177.61316 L 112.23699 177.61316 C 110.07151 177.61316 108.38676000000001 176.14185 107.87892000000001 174.29718 L 109.34957000000001 171.7567 C 111.70206000000002 167.66655 117.58433000000001 167.66655 119.93717000000001 171.7567 L 121.40778 174.3246 z" stroke-linecap="round" />
</g>
		<g transform="matrix(1 0 0 1 -4.376231324955057 38.32090999999997)" id="Path-12_00000036969161639328609640000012145415967969505696_"  >
<path style="stroke: none; stroke-width: 1; stroke-dasharray: none; stroke-linecap: butt; stroke-dashoffset: 0; stroke-linejoin: miter; stroke-miterlimit: 4; fill: rgb(198,99,21); fill-rule: nonzero; opacity: 1;"  paint-order="stroke"  transform=" translate(-116.02426401889319, -163.32090999999997)" d="M 209.15663 159.202 C 206.92885 146.99815999999998 202.02046 135.00245999999999 195.26367000000002 124.47564 C 191.90977 119.21217 188.09073 114.32819 183.90442000000002 109.95832 C 183.75754 109.78701 183.59840000000003 109.61563 183.43927000000002 109.4565 C 181.61545 107.57148000000001 179.73042 105.79660000000001 177.79640000000003 104.13191 C 176.70698000000004 103.18936000000001 175.60538000000003 102.29583000000001 174.47928000000005 101.42673 C 170.74585000000005 98.53799000000001 166.81670000000005 96.07763 162.77733000000003 94.10691 C 162.07961000000003 93.76414 161.38190000000003 93.43361 160.67192000000003 93.13986 C 157.17114000000004 91.58537 153.58467000000002 90.4225 149.94920000000002 89.70027 C 146.97476000000003 89.1005 143.96357000000003 88.79449 140.95243000000002 88.80673 C 140.02215 88.80673 139.06736 88.84342 138.13714000000002 88.91686 C 137.99026 88.85566 137.85555000000002 88.78222 137.70867 88.72104 C 136.49686 88.15794 135.27282000000002 87.64387 134.02425000000002 87.17871 C 132.45751 86.57893999999999 130.86626 86.05261 129.26274000000004 85.59971999999999 C 125.35801000000004 84.49803999999999 121.34308000000004 83.81258 117.25479000000004 83.62901 C 116.43461000000005 83.59226 115.62678000000004 83.56774 114.80668000000004 83.56774 C 113.92533000000005 83.56774 113.04405000000004 83.59225 112.17494000000005 83.64119 C 109.87372000000005 83.75138 107.60925000000005 84.02063 105.36922000000006 84.43686 C 103.39851000000006 84.79181 101.45224000000006 85.26921 99.53047000000005 85.84456 C 96.86205000000005 86.64015 94.24254000000005 87.63163 91.69658000000005 88.81899 C 90.01963000000005 88.78223 88.35486000000006 88.85567 86.69018000000005 89.02707 C 82.01428000000006 89.46771 77.38741000000006 90.66732999999999 72.87065000000005 92.50340999999999 C 68.34164000000006 94.33948999999998 63.94726000000006 96.82427999999999 59.73651000000005 99.82323 C 52.783890000000056 104.79289 46.394380000000055 111.19466 40.89839000000005 118.53898 C 32.04843000000005 130.36337 25.54872000000005 144.62354 22.89255000000005 159.20204999999999 C 18.86544000000005 181.35736999999997 24.59401000000005 199.51011 36.40607000000005 212.43609999999998 C 44.98669000000005 221.83680999999999 56.82333000000005 228.47116 70.45922000000004 231.83729999999997 C 61.095260000000046 228.07943999999998 53.33473000000004 220.88201999999998 48.27939000000005 212.13008999999997 C 44.03196000000005 204.81026999999997 41.68173000000005 196.40094999999997 41.86537000000005 187.99171999999996 L 42.11020000000005 187.94278999999995 C 43.38319000000005 196.51115999999993 46.49233000000005 204.76125999999994 51.08253000000005 212.05664999999993 C 56.17456000000005 220.14760999999993 62.72321000000005 227.01453999999993 71.05901000000004 231.91074999999992 L 71.37728000000004 232.06987999999993 C 83.55661000000003 239.35298999999992 98.56351000000004 243.07407999999992 114.80671000000004 243.07407999999992 C 130.42557000000005 243.07407999999992 144.91838000000004 239.6223099999999 156.84065000000004 232.89000999999993 L 157.08548000000005 232.75530999999992 C 167.03703000000004 227.16138999999993 175.06680000000006 218.77665999999994 180.53830000000005 208.76391999999993 C 181.95824000000005 206.16892999999993 183.18228000000005 203.45149999999992 184.19826000000006 200.66068999999993 C 185.87522000000007 196.16843999999992 186.98908000000006 191.46804999999992 187.69904000000005 186.73095999999993 L 187.94387000000006 186.76765999999992 C 188.18862000000007 194.3200999999999 186.45049000000006 201.87249999999992 183.15778000000006 208.69047999999992 C 177.94332000000006 219.51106999999993 168.83635000000007 228.49563999999992 157.56287000000006 232.74307999999994 C 157.89331000000007 232.68188999999992 158.23609000000005 232.62069999999994 158.57878000000005 232.54725999999994 C 175.44626000000005 229.02197999999993 189.79211000000004 220.64950999999994 199.08272000000005 208.28651999999994 C 208.53236 195.73994 212.76761 179.08061 209.15663 159.202 z M 62.74769 184.83368 L 54.87703 169.32486 C 54.87703 168.59047 61.52363 137.57294000000002 61.52363 137.57294000000002 L 73.82534 134.13335 L 105.82211 165.38346 L 98.44111 181.88366000000002 L 80.47194999999999 191.96986 L 62.74769 184.83368 z M 133.5347 193.74474 C 133.20415999999997 195.94802 131.88216999999997 197.71065000000002 131.88216999999997 197.71065000000002 L 130.93970999999996 199.42436 L 128.13655999999997 194.99328 L 123.03228999999997 196.7069 L 124.77042999999998 201.493 L 127.61023999999998 206.87886 L 123.14248999999998 208.37218000000001 L 122.50595999999999 202.60684 L 121.20846999999999 197.80859 C 121.19622 197.77189 121.19622 197.74739 121.18395999999998 197.7229 C 121.17170999999999 197.66171 121.15952999999999 197.63721 121.15952999999999 197.63721 L 115.62678 198.62868 L 115.61453 198.62868 L 115.59002 198.64093 L 115.79817 203.80647 L 116.80189 209.11882 C 116.80189 209.11882 112.21169 209.14333 112.0158 209.11882 L 113.52135 203.90434 L 113.71724999999999 198.71437 L 108.16 197.71063 C 108.16 197.71063 108.14782 197.73515 108.13557 197.79634000000001 C 108.12332 197.82083 108.12332 197.84534000000002 108.11106 197.88203000000001 L 106.81356 202.7048 L 106.1036 208.26196000000002 L 102.16218 207.03792 L 104.54910000000001 201.57869000000002 L 106.26272000000002 196.81711 L 106.27497000000001 196.79260000000002 L 106.26272000000002 196.78041000000002 L 106.25047000000002 196.76816000000002 L 101.20737000000003 195.09122000000002 L 101.17069000000002 195.09122000000002 L 98.37981000000002 199.52228000000002 L 97.37609000000002 206.24233 L 95.71139000000002 200.41584 L 97.53521000000002 196.79261 C 97.53521000000002 196.79261 95.16055000000001 195.12792 95.22181000000002 191.54145 C 95.27074000000002 187.94272999999998 98.06155000000003 185.2743 98.06155000000003 185.2743 L 102.02755000000002 180.79423 L 108.17225000000002 180.73304 L 108.17225000000002 171.63834 L 121.84497000000002 171.63834 L 121.84497000000002 180.59841 L 128.00191 180.53722 L 130.98860000000002 185.18859999999998 C 131.57612000000003 185.86181999999997 132.04127000000003 186.65747 132.33504000000002 187.51433999999998 C 132.34729000000002 187.53876999999997 132.34729000000002 187.55100999999996 132.34729000000002 187.56325999999999 C 133.70607 190.17052 133.86514 191.55371 133.5347 193.74474 z M 150.36542 191.48026 L 132.39633 181.137 L 123.28937 166.13012 L 154.55167 134.62301 L 166.3638 139.05409 L 169.55855 146.6799 C 169.55855 146.6799 174.73628 176.21631 174.73628 177.69745 C 174.73628 179.16631 150.36542 191.48026 150.36542 191.48026 z" stroke-linecap="round" />
</g>
		<g transform="matrix(1 0 0 1 -5.562201406615628 45.64668827297487)" id="Path-11_00000085241782196020178080000002688661159895361448_"  >
<path style="stroke: none; stroke-width: 1; stroke-dasharray: none; stroke-linecap: butt; stroke-dashoffset: 0; stroke-linejoin: miter; stroke-miterlimit: 4; fill: rgb(213,120,53); fill-rule: nonzero; opacity: 1;"  paint-order="stroke"  transform=" translate(-114.83829393723262, -170.64668827297487)" d="M 202.76711 156.12961 C 200.03751 122.27228000000002 185.9609 115.73588000000001 185.9609 115.73588000000001 C 185.9609 115.73588000000001 183.86775 115.73588000000001 179.33874 116.54373000000001 C 174.80973 117.35165 172.3372 119.33461000000001 172.3372 119.33461000000001 C 172.3372 119.33461000000001 172.71666 120.58317000000001 174.98111 124.73266000000001 C 177.15997 128.74758 179.90183 137.57296000000002 180.06096 138.12379 C 179.90183 137.80552 178.27382 134.57409 175.44626 129.54318 C 172.47182 124.25534 169.31374 121.28082 169.31374 121.28082 C 169.31374 121.28082 144.69806 135.5043 119.38466 133.85186000000002 C 94.05899 132.18716 79.7253 104.1319 79.7253 104.1319 C 79.7253 104.1319 75.25755000000001 105.40489 68.92914 110.04402 C 62.821130000000004 114.49959 57.09257 121.30532000000001 56.67636 121.80723 C 60.923860000000005 114.85453000000001 65.90576 108.48953 71.48744 103.04247000000001 C 69.99406 103.10366 68.28043000000001 103.12817000000001 67.00736 103.61774000000001 C 60.850410000000004 105.95572000000001 53.812110000000004 110.03176 47.27564000000001 117.38833000000001 C 37.874930000000006 127.93966 28.38851000000001 141.15948 26.76050000000001 169.82678 C 25.132560000000012 198.49408000000003 41.98772000000001 203.90437000000003 41.98772000000001 203.90437000000003 C 41.98772000000001 203.90437000000003 39.25811000000001 194.14871000000002 39.13573000000001 187.94275000000002 C 38.90315000000001 176.39995000000002 42.69769000000001 171.00183 42.69769000000001 171.00183 C 42.69769000000001 171.00183 47.45928000000001 208.10293000000001 66.89724000000001 222.62018 C 94.2793 243.07407 128.30795 242.11934 155.78794 227.47965 C 183.28019 212.85220999999999 187.82139 180.34136 187.82139 180.34136 C 187.82139 180.34136 188.93531000000002 190.62343 187.82139 196.18061 C 186.7442 201.55422000000002 185.66703 203.68406 185.60586 203.80651 C 186.16896 203.41478 205.47223 189.50957 202.76711 156.12961 z M 110.32662 177.47711 L 111.22015 175.93478000000002 L 111.96688 174.64953000000003 C 112.33408 174.01301000000004 112.88493 173.56011000000004 113.49696 173.31529000000003 C 113.49696 173.31529000000003 114.77311 170.95697000000004 117.79628 172.75926000000004 L 118.95903 174.67782000000005 L 120.12179 177.75912000000005 C 121.30916 179.82777000000004 118.61346 183.16597000000004 116.22655 183.16597000000004 L 112.97061000000001 182.11623000000003 C 110.62038 182.0918 109.15158 179.53351 110.32662 177.47711 z M 58.36557 172.32381 C 58.36557 172.32381 58.19426 164.62455 59.907889999999995 157.08435 C 61.621599999999994 149.55646 70.5204 137.90346 70.5204 137.90346 L 105.11214 162.56815 L 94.67101 183.97681 L 69.66362 190.47654 L 58.36557 172.32381 z M 135.07701 204.41852 C 128.91998 209.46161 117.67094 210.25719 117.67094 210.25719 C 117.29149 210.29396 115.47991 210.17151 115.0882 210.17151 C 114.90455 210.17151 114.10897 207.56433 114.10897 207.56433 C 114.10897 207.56433 113.71728 207.56433 113.52137 207.53984000000003 L 113.52137 203.90436000000003 L 108.38041000000001 202.98631000000003 L 107.68269000000001 209.59623000000002 L 92.33301 204.0268 C 86.12705 198.24924000000001 88.33042 188.17530000000002 93.83864 185.92301 C 95.41763 185.2743 105.47939 181.88364 105.47939 181.88364 L 107.33989 191.24768 L 108.04987 188.67712 C 109.67787 190.23169000000001 111.1957 191.82295 112.95833 192.47172 L 117.10788000000001 183.14445 L 127.13281 183.08326 C 128.36911 182.92413 130.71936 183.40144999999998 132.27385 184.03797 C 137.78212 186.2903 141.22171 198.6532 135.07701 204.41852 z M 171.38239 177.29346 C 167.79592 186.20461 149.3005 190.81925 149.3005 190.81925 C 149.3005 190.81925 136.61927 186.20461 130.97639 179.69265000000001 C 125.32128000000002 173.18067000000002 124.63581 160.16898 124.63581 160.16898 L 154.60059 139.44577 L 158.22382000000002 143.30156000000002 C 160.68418000000003 144.81938000000002 162.8752 146.91246 164.67461000000003 149.39734 L 172.41063000000003 157.5985 C 172.41063 157.5985 174.98109 168.39464 171.38239 177.29346 z" stroke-linecap="round" />
</g>
		<g transform="matrix(1 0 0 1 -6.7127610391180355 48.03464589766825)" id="Path-10_00000021101647198595031410000016916078847315960761_"  >
<path style="stroke: none; stroke-width: 1; stroke-dasharray: none; stroke-linecap: butt; stroke-dashoffset: 0; stroke-linejoin: miter; stroke-miterlimit: 4; fill: rgb(220,135,48); fill-rule: nonzero; opacity: 1;"  paint-order="stroke"  transform=" translate(-113.68773430473021, -173.03464589766824)" d="M 108.38042 202.98631 L 106.81359 202.70482 C 106.81359 202.70482 106.10363000000001 204.99378000000002 105.6263 206.45041 C 104.86739 206.25459 104.16967 206.03427 103.4842 205.77719000000002 L 104.54912 201.57870000000003 L 98.37985 199.52229000000003 C 98.37985 199.52229000000003 97.76782 200.75860000000003 97.19256 202.00709000000003 C 90.9866 196.22959000000003 91.99033 187.73466000000002 97.49858 185.48237000000003 C 99.07758 184.83367000000004 100.46076000000001 184.67454000000004 101.70933000000001 184.84591000000003 L 100.21596000000001 189.53399000000005 L 106.99726000000001 192.47173000000004 L 107.33996 191.24769000000003 C 106.6545 176.98744000000005 108.16005 162.73945000000003 113.12978000000001 149.40957000000003 C 114.10901000000001 146.79009000000002 115.07599 143.46061000000003 113.04409000000001 141.53892000000002 C 112.56670000000001 141.07377000000002 111.96692000000002 140.76776 111.37932 140.47399000000001 C 106.3118 137.89118000000002 101.2442 135.32072000000002 96.17661000000001 132.73797000000002 C 94.86686000000002 132.06469 93.47143000000001 131.39147000000003 92.00261 131.51393000000002 C 90.86426 131.62405 89.82376000000001 132.21165000000002 88.88122 132.84811000000002 C 85.62527 135.06364000000002 82.90791 138.06259000000003 81.04733 141.52667000000002 C 80.92489 137.73205000000002 82.05105 133.91304000000002 84.2054 130.79170000000002 C 84.78067 129.94711 85.46614 129.05357 85.40495 128.03758000000002 C 85.35602 127.40105000000003 85.0255 126.83804000000002 84.70723 126.29946000000002 C 83.82593999999999 124.79382000000003 82.94458999999999 123.30051000000003 82.05105999999999 121.79495000000003 C 81.69603 121.19518000000002 81.32884 120.57090000000002 80.74131 120.19145000000003 C 78.95417 119.01633000000002 76.70194 120.73004000000003 75.33102 122.37022000000003 C 65.20808 134.46388000000002 59.185759999999995 149.92367000000004 58.45128 165.68948000000003 C 55.941979999999994 148.57724000000002 62.099 130.41227000000003 74.48640999999999 118.35538000000003 C 76.61626 116.27448000000003 78.12181 113.06745000000002 74.00901999999999 114.47508000000002 C 71.21815 115.42988000000003 68.19476999999999 119.17548000000002 66.29749999999999 121.32982000000001 C 61.90311999999999 126.32389 58.622669999999985 132.24836000000002 56.162309999999984 138.40537 C 52.97979999999998 146.34946 51.02127999999998 154.79538 50.397069999999985 163.33931 C 49.61365999999998 174.12322 50.97233999999999 185.13969 55.023949999999985 195.16469 C 59.08781999999999 205.18968 65.91804999999998 214.18645 74.89030999999999 220.20877000000002 C 76.24905999999999 221.1268 77.71785999999999 221.99591 79.34587999999998 222.1673 C 80.97388999999998 222.35086 82.80997999999998 221.65314 83.49542999999998 220.17208000000002 C 84.16864999999999 218.70321 83.58111999999998 217.00176000000002 83.06695999999998 215.48394000000002 C 80.80248999999998 208.86185 79.71306999999999 201.83572 79.85993999999998 194.83417000000003 C 80.64335999999999 200.06090000000003 81.78171999999998 205.23863000000003 83.28734999999998 210.29398000000003 C 85.64976999999998 218.26258000000004 89.54223999999998 226.65955000000002 97.10686999999997 230.11139000000003 C 102.33359999999998 232.48605000000003 108.35591999999997 232.04541000000003 114.08447999999997 231.54350000000002 C 112.95837999999998 226.94105000000002 111.84444999999997 222.3386 110.86521999999997 217.68722000000002 C 109.84922 212.84001 108.99245 207.93155 108.38042 202.98631 z M 90.08082 182.70383 C 87.03294 184.23391 83.4954 185.02948 79.7253 185.02948 C 68.40281 185.02948 59.23467000000001 177.83205 59.23467000000001 165.59152 C 59.23467000000001 155.60328 65.34269 145.37022000000002 73.72749 141.93056 C 74.43738 143.80341 75.45337 145.65174000000002 76.73861000000001 147.46331 C 81.43901000000001 154.14667 89.71362 160.35261 100.20368 164.79594 C 100.21593 165.0652 100.21593 165.32228 100.21593 165.59153 C 100.21593 173.74376 96.15207 179.66812 90.08082 182.70383 z M 173.45103 198.38394 C 172.4963 202.01935 171.27226000000002 205.65481 169.14234 208.73937999999998 C 165.8252 213.54989999999998 160.62297999999998 216.64678999999998 155.57988999999998 219.58446999999998 C 156.77943999999997 210.63663999999997 156.64479999999998 201.50526 155.17592999999997 192.60636999999997 C 155.00455999999997 198.92251999999996 154.50270999999998 205.23861999999997 153.64586999999997 211.51800999999998 C 153.26640999999998 214.28437999999997 152.80126999999996 217.12419999999997 151.30786999999998 219.49885999999998 C 149.25149 222.76704999999998 145.57931999999997 224.61538 142.10304999999997 226.30459 C 139.01840999999996 227.79791 135.89708999999996 229.30346 132.51867999999996 229.8543 C 132.02903999999995 229.93999 131.46603999999996 229.97674 131.11099999999996 229.62172999999999 C 130.79281999999995 229.31571 130.76831999999996 228.83830999999998 130.76831999999996 228.39768999999998 C 130.71936999999997 223.2934 130.68260999999995 218.20138999999998 130.63368999999997 213.09702 C 129.78908999999996 215.49618999999998 129.64219999999997 218.06669 129.21373999999997 220.57598 C 128.78535999999997 223.08533 128.00192999999996 225.65582999999998 126.17811999999998 227.43071999999998 C 124.36654999999998 229.20560999999998 121.25739999999998 229.85431999999997 119.25001999999998 228.29983 C 117.78113999999998 227.14919999999998 117.24255999999998 225.20293999999998 116.83859999999997 223.3791 C 115.66347999999996 218.15237 114.75769999999997 212.8767 114.10898999999998 207.56436 C 114.28029999999998 207.57654 114.46393999999998 207.57654 114.64757999999998 207.57654 C 115.03926999999997 207.57654 115.41873999999997 207.57654 115.79818999999998 207.53987 L 115.79818999999998 203.80652 L 122.50597999999998 202.60689 C 122.50597999999998 202.60689 123.25262999999998 204.99381 123.71776999999997 206.43819 C 124.47667999999997 206.23012 125.18664999999997 205.99756 125.85987999999998 205.74047 L 124.77045999999997 201.49304999999998 L 130.93972999999997 199.4244 C 130.93972999999997 199.4244 131.55175999999997 200.67295 132.15153999999998 201.94594999999998 C 138.29631999999998 196.18062999999998 137.29258 187.73470999999998 131.78434 185.48242 C 130.22976999999997 184.84596 128.87108999999998 184.68684 127.63477999999999 184.84596 L 129.09141 189.43617 L 122.33461 192.3616 L 121.29419 188.62825 C 119.16435 190.67239 117.18139 192.79005 114.6476 192.79005 C 114.06 192.79005 113.49698 192.67985000000002 112.9584 192.47178 C 112.86045 189.01995 112.86045 185.56811 112.97064999999999 182.11627 L 116.27552999999999 182.11627 C 118.66244999999999 182.11627 120.14357999999999 179.54579999999999 118.95620999999998 177.47716 L 118.06267999999999 175.94708 L 117.31601999999998 174.64958 C 116.49592999999999 173.22964 114.84341999999998 172.78901 113.49697999999998 173.31534 C 113.98655999999998 167.46439999999998 114.76996999999997 161.61341 115.96950999999999 155.88484 C 116.45915999999998 153.55911 117.08343999999998 151.28238 117.74439999999998 149.00566 C 118.12384999999999 147.70817 118.34417999999998 145.56608 119.27447999999998 144.53784000000002 C 119.33566999999998 144.4644 122.15104999999998 142.22444000000002 121.93064999999999 143.39947 C 119.81304999999999 154.73422 119.65391999999999 166.43617 121.46557999999999 177.81983000000002 C 121.57569999999998 165.88531000000003 122.29791999999999 153.3266 128.66293 143.22816000000003 C 129.26278 142.27337000000003 129.93599999999998 141.31857000000002 130.92748999999998 140.78006000000002 C 132.18821999999997 140.08235000000002 133.70609999999996 140.19246 135.15048 140.22923000000003 C 140.76883999999998 140.40054000000003 146.43622 139.32344000000003 151.61391999999998 137.09565000000003 C 152.43409999999997 136.72837000000004 153.33988999999997 136.33674000000005 154.22115999999997 136.54481000000004 C 155.38402999999997 136.83857000000003 156.03281999999996 138.06263000000004 156.51012999999998 139.16430000000005 C 157.10997999999998 140.53524000000004 157.67299999999997 141.91842000000005 158.22383999999997 143.30160000000006 C 157.36697999999996 142.76303000000007 156.48569999999998 142.31013000000007 155.56766999999996 141.93060000000006 C 154.85768999999996 143.76667000000006 153.86621999999997 145.59059000000005 152.61765999999997 147.36540000000005 C 147.92957999999996 154.08552000000006 139.61821999999998 160.32815000000005 129.07915999999997 164.79597000000004 C 129.06688999999997 165.06523000000004 129.06688999999997 165.32231000000004 129.06688999999997 165.59156000000004 C 129.06688999999997 173.71929000000006 133.11849999999998 179.63149000000004 139.15306999999999 182.67937000000003 C 142.21319999999997 184.22168000000002 145.76298999999997 185.02951000000004 149.55752999999999 185.02951000000004 C 160.88001 185.02951000000004 170.0604 177.83208000000005 170.0604 165.59155000000004 C 170.0604 159.82631000000003 168.02850999999998 153.97529000000003 164.67462999999998 149.39737000000005 C 163.85444999999999 145.12543000000005 162.71608999999998 140.91467000000006 161.27170999999998 136.80188000000004 C 161.11258999999998 136.32448000000005 160.94127999999998 135.81032000000005 161.06366 135.32076000000004 C 161.17384 134.83111000000002 161.57773 134.46390000000002 161.94493 134.12121000000005 C 163.03436 133.14192000000006 164.11153 132.16268000000005 165.20096 131.17120000000006 C 165.76406 130.66937000000004 166.43727 130.11853000000005 167.19618 130.24092000000005 C 168.0897 130.38780000000006 168.5426 131.36711000000005 168.83635999999998 132.22388000000004 C 176.16847 153.43668 179.15508 176.69368 173.45103 198.38394 z M 36.04844 169.40468 C 33.74884 167.96819000000002 32.903729999999996 165.05222 32.53139 162.36652 C 31.195020000000003 152.72693 33.61584 142.85465000000002 37.81895 134.07737 C 40.4304 128.62394 43.96092 123.2594 48.94204 119.69306 C 51.30365 118.00219 55.32289 115.13397 54.09579 119.44356 C 53.25177 122.40785000000001 50.23874 125.65762000000001 48.76506 128.42395 C 42.00064 141.12199 37.64091 155.10316 36.04844 169.40468 z M 181.11543 131.10538 C 187.04941 148.33432 191.02757 166.23609 192.94899 184.35672 C 195.01871 181.02982 195.12375 176.88887 195.16692 172.97093 C 195.33735000000001 157.49649000000002 195.37432 141.38788 188.67379 127.43834000000001 C 185.61777 121.07617 178.95058 124.81991 181.11543 131.10538 z" stroke-linecap="round" />
</g>
		<g transform="matrix(1 0 0 1 -0.09158944757433574 -64.76355577476933)" id="Path-09_00000150799582194204934930000011696953687831219111_"  >
<path style="stroke: none; stroke-width: 1; stroke-dasharray: none; stroke-linecap: butt; stroke-dashoffset: 0; stroke-linejoin: miter; stroke-miterlimit: 4; fill: rgb(113,93,139); fill-rule: nonzero; opacity: 1;"  paint-order="stroke"  transform=" translate(-120.30890589627391, -60.23644422523066)" d="M 233.20929 83.56773 C 232.32794 87.47247 229.03525000000002 91.80566 222.91498 95.97964999999999 C 215.20346 101.19412999999999 203.03638 106.15153 185.59361 109.62786999999999 C 185.04284 109.73799999999999 184.47976 109.84818999999999 183.90442000000002 109.95830999999998 C 178.60433 110.96204999999998 172.83901000000003 111.84340999999998 166.58412 112.55329999999998 C 138.63896 115.72362999999999 116.81409000000002 110.71721999999998 96.12764000000001 102.66299999999998 C 88.30592000000001 99.61512999999998 80.64334000000001 96.13877999999998 72.87064000000001 92.50337999999998 C 68.40282 90.41022999999998 63.89831000000001 88.28038999999998 59.308110000000006 86.13828999999998 C 25.59772000000001 70.44592999999998 11.912820000000004 79.46718999999999 7.236930000000008 88.91684999999998 C 7.041040000000008 89.32079999999998 6.918660000000008 89.72476999999998 6.845220000000008 90.15315999999999 C 6.845220000000008 90.15315999999999 6.845220000000008 90.10422999999999 6.857470000000008 90.01851999999998 C 6.869640000000008 89.76144999999998 6.943160000000008 89.13723999999998 7.138980000000008 88.26814999999998 C 7.151230000000008 88.24363999999997 7.151230000000008 88.20694999999998 7.163490000000008 88.17019999999998 C 7.995840000000008 84.70609999999998 10.982530000000008 77.65561999999998 21.619560000000007 75.46451999999998 C 35.27996 72.63696999999998 57.631170000000004 75.39107999999997 67.00739000000002 76.77426999999997 L 90.94986000000002 74.75462999999998 L 84.43796000000002 62.59971999999998 C 84.43796000000002 62.59971999999998 87.15532000000002 55.05958999999998 91.29263000000002 47.70301999999998 C 95.16060000000002 40.82384999999998 103.48422000000002 29.635989999999982 104.53689000000001 28.216119999999982 C 104.62258000000001 28.11817999999998 104.65927000000002 28.069239999999983 104.65927000000002 28.069239999999983 C 104.79391000000003 27.897859999999984 104.91634000000002 27.738719999999983 105.06323000000002 27.579589999999982 C 105.08774000000003 27.54290999999998 105.11216000000002 27.50614999999998 105.13667000000002 27.48164999999998 C 105.14892000000002 27.45721999999998 105.17343000000002 27.432719999999982 105.18560000000002 27.40820999999998 C 105.19785000000002 27.396039999999978 105.21011000000003 27.37152999999998 105.22236000000002 27.35927999999998 L 105.22236000000002 27.34702999999998 C 105.23461000000002 27.334779999999977 105.23461000000002 27.334779999999977 105.23461000000002 27.334779999999977 C 115.08822000000002 15.265629999999977 125.01527000000002 6.048559999999977 131.74756000000002 7.027779999999979 C 150.09610000000004 9.70845999999998 173.806 32.07185999999998 173.806 32.07185999999998 C 173.806 32.07185999999998 180.80762000000001 29.391249999999978 185.15300000000002 32.07185999999998 C 186.00984000000003 32.59826999999998 186.57292 33.29590999999998 186.81767000000002 34.09157999999998 C 186.81767000000002 34.09157999999998 186.82994000000002 34.09157999999998 186.82994000000002 34.10382999999998 C 186.82994000000002 34.10382999999998 183.90443000000002 40.236339999999984 176.22966000000002 41.82759999999998 C 168.56708000000003 43.418849999999985 154.77200000000002 40.75042999999998 154.77200000000002 40.75042999999998 L 157.70974 54.60671999999998 L 157.73417 54.74133999999998 L 160.02322 69.47897999999998 L 146.2648 87.12976 L 169.31372000000002 86.73807000000001 C 174.85873 86.86045000000001 185.53244 86.67688000000001 203.17108000000002 84.80404000000001 C 231.54462 81.80508 235.54721 73.1266 233.20929 83.56773 z" stroke-linecap="round" />
</g>
		<g transform="matrix(1 0 0 1 7.19340660649442 -64.99813731098706)" id="Path-08_00000066489304024819350710000001407232084355943574_"  >
<path style="stroke: none; stroke-width: 1; stroke-dasharray: none; stroke-linecap: butt; stroke-dashoffset: 0; stroke-linejoin: miter; stroke-miterlimit: 4; fill: rgb(93,73,128); fill-rule: nonzero; opacity: 1;"  paint-order="stroke"  transform=" translate(-127.59390195034267, -60.00186268901293)" d="M 174.46269 44.07684 C 163.09126 46.35341 155.18385 41.040609999999994 154.77989000000002 40.75911 L 154.76764000000003 40.74715 C 154.76764000000003 40.74715 152.11147000000003 29.40016 153.56809000000004 27.037519999999997 C 155.01247000000004 24.675469999999997 158.66013000000004 28.788129999999995 155.64899000000005 36.328489999999995 C 155.64899000000005 36.328489999999995 155.02472000000006 41.469159999999995 163.60535000000004 40.74715 C 172.17371000000006 40.0126 172.57767000000004 38.605059999999995 172.57767000000004 38.605059999999995 C 172.57767000000004 38.605059999999995 174.24237000000005 36.12049 173.80173000000005 32.06822 C 173.80173000000005 32.06822 175.82137000000006 33.488319999999995 175.27053000000004 36.82996 C 174.73194000000004 40.1716 175.58880000000005 40.50212 176.18858000000003 40.30667 C 176.80061000000003 40.098679999999995 176.97198000000003 38.605059999999995 176.97198000000003 38.605059999999995 C 176.97198000000003 38.605059999999995 177.82885000000002 35.33693999999999 175.27053000000004 33.12132999999999 C 175.27053000000004 33.12132999999999 177.53507000000005 33.21934999999999 180.66865000000004 35.16539999999999 C 183.81448000000003 37.09949999999999 186.81335000000004 34.088379999999994 186.81335000000004 34.088379999999994 C 186.81335000000004 34.088379999999994 186.82560000000004 34.088379999999994 186.82560000000004 34.100339999999996 C 187.81708 37.34454 183.81447 42.2037 174.46269 44.07684 z M 169.3094 86.7346 C 169.3094 86.7346 169.17477000000002 86.75911 168.91768000000002 86.79617 C 167.21631000000002 87.11415000000001 160.26364 88.3382 153.12746 89.28074000000001 C 151.98909 89.42777000000001 150.92418 89.57478 149.94487 89.69673 C 143.81242 90.49284 140.62993 90.88431 140.62993 90.88431 L 140.2749 93.13639 C 140.2749 93.13639 139.87086 93.34499000000001 138.25519 93.47946 C 136.1131 93.68745 131.85341 93.77293 123.59106 93.13639 C 123.44418 93.12443 123.30955 93.11189 123.16266 93.09992000000001 C 109.06154000000001 91.98584000000001 105.23026 90.17428000000001 105.23026 90.17428000000001 L 105.23026 87.35920000000002 C 105.23026 87.35920000000002 102.92905 86.74718000000001 99.52614 85.84110000000001 C 94.56867 84.49452000000001 87.27336 82.48749000000001 81.33673 80.72433000000001 C 74.15153000000001 78.58223000000001 70.51614000000001 77.61579 69.04734 77.23625000000001 C 68.72907000000001 77.16273000000001 68.45967 77.10118000000001 68.21492 77.04021000000002 L 68.54529000000001 75.60817000000002 L 75.66936000000001 70.23442000000001 L 75.66936000000001 70.22246000000001 C 76.34265 69.13288000000001 77.06479000000002 67.94589 77.86047 66.66027000000001 C 78.19099000000001 66.12175 78.54602000000001 65.55875000000002 78.90089 64.98318 C 80.17382 62.951660000000004 81.55712 60.76055 83.05044000000001 58.434380000000004 C 83.76034000000001 57.33285000000001 84.49473 56.206830000000004 85.25379000000001 55.056270000000005 C 86.60007 52.99964000000001 88.0079 50.88205000000001 89.47671000000001 48.728010000000005 C 89.99072000000001 47.96895000000001 90.50489000000002 47.20991000000001 91.03128000000001 46.43889000000001 C 91.44743000000001 45.838820000000005 91.86355 45.23935000000001 92.27984000000001 44.65182000000001 C 92.95299000000001 43.67282000000001 93.65063 42.69321000000001 94.34841 41.71421000000001 C 97.15155 37.760540000000006 100.07689 33.83138000000001 103.01481 30.09766000000001 C 103.55333 29.41212000000001 104.10408 28.73913000000001 104.65486 28.06613000000001 C 104.80189 27.87009000000001 104.96088 27.674060000000008 105.13241 27.47801000000001 C 105.10789999999999 27.503110000000007 105.08339 27.53957000000001 105.05888999999999 27.57603000000001 C 103.45531 29.853200000000008 90.82315999999999 47.89543000000001 91.34955 53.09765000000001 C 91.90032 58.66745000000001 93.565 58.21441000000001 93.565 58.21441000000001 C 93.565 58.21441000000001 87.04084999999999 61.01754000000001 95.68274 64.48171 C 97.97156 65.38721000000001 101.32544999999999 66.35425000000001 106.16055999999999 67.32129 C 107.82525999999999 67.66378 109.67358999999999 67.99428 111.70540999999999 68.32479000000001 C 111.82792999999998 68.34930000000001 111.95030999999999 68.37379000000001 112.08492999999999 68.39831000000001 C 112.32967999999998 68.42282000000002 112.57457999999998 68.47183000000001 112.81947999999998 68.50888 C 114.39840999999998 68.75333 116.09985999999998 69.01034 117.92367999999999 69.26733 C 119.64948 69.49982 121.47344999999999 69.73293 123.40740999999998 69.96543 C 127.21419999999999 70.43043 130.60484 70.78545 133.60385 71.0544 C 134.55852 71.14047000000001 135.46445 71.21398 136.34572 71.28691 C 136.55373 71.29945000000001 136.7496 71.32396 136.9455 71.33591000000001 C 139.43036 71.52000000000001 141.60907 71.64193000000002 143.51851000000002 71.70349000000002 C 149.17371000000003 71.88698000000002 152.47865000000002 71.55646000000002 154.31473000000003 71.00601000000002 C 158.01142000000002 69.87938000000001 155.73468000000003 67.82335000000002 154.75539000000003 67.10076000000002 C 155.37966000000003 67.44383000000002 156.64048000000003 67.70082000000002 157.70540000000003 65.15471000000002 C 158.90494000000004 62.29063000000002 158.17055000000002 57.17385000000002 157.84001000000004 55.31328000000002 L 162.29558000000003 76.30566000000002 L 169.3094 86.7346 z" stroke-linecap="round" />
</g>
		<g transform="matrix(1 0 0 1 -2.244240343848233 -49.869385)" id="Path-07_00000125567310533732981660000005173593368840445072_"  >
<path style="stroke: none; stroke-width: 1; stroke-dasharray: none; stroke-linecap: butt; stroke-dashoffset: 0; stroke-linejoin: miter; stroke-miterlimit: 4; fill: rgb(91,57,23); fill-rule: nonzero; opacity: 1;"  paint-order="stroke"  transform=" translate(-118.15625500000002, -75.130615)" d="M 169.3094 86.7346 C 169.3094 86.7346 169.17477000000002 86.75911 168.91768000000002 86.79617 C 166.98374 87.07768 157.97466000000003 88.21566 141.04605 88.11765 L 137.70427 88.71772 L 134.57079000000002 89.28074 L 132.84482000000003 89.0847 L 111.50966000000003 86.6611 L 105.36488000000003 84.43355000000001 C 89.68470000000002 81.77745000000002 74.43306000000003 78.43581 69.04734000000002 77.23626000000002 C 68.72907000000002 77.16274000000001 68.45967000000002 77.10118000000001 68.21492000000002 77.04021000000002 C 67.43151000000002 76.86868000000001 67.00311000000002 76.77126000000001 67.00311000000002 76.77126000000001 C 67.00311000000002 76.77126000000001 69.12070000000003 73.52704000000001 75.66935000000002 70.23441000000001 L 75.66935000000002 70.22245000000001 C 80.08817000000002 68.00684000000001 86.51445000000002 65.76673000000001 95.68273000000002 64.48171 C 98.88959000000003 64.02867 102.41502000000003 63.698150000000005 106.31967000000002 63.514660000000006 L 106.33192000000001 63.502120000000005 L 106.66244000000002 63.330580000000005 L 111.13011000000002 60.98049 L 139.68735 63.36764 L 144.21628 67.10074 C 148.17003000000003 68.23934 151.49941 69.57336000000001 154.31471000000002 71.006 C 157.65643000000003 72.69504 160.26361000000003 74.51857 162.29556000000002 76.30564 C 168.44037 81.70392 169.3094 86.7346 169.3094 86.7346 z" stroke-linecap="round" />
</g>
		<g transform="matrix(1 0 0 1 3.653909656151747 -49.4849040418504)" id="Path-06_00000139264202314073757950000008176539496692520366_"  >
<path style="stroke: none; stroke-width: 1; stroke-dasharray: none; stroke-linecap: butt; stroke-dashoffset: 0; stroke-linejoin: miter; stroke-miterlimit: 4; fill: rgb(255,170,0); fill-rule: nonzero; opacity: 1;"  paint-order="stroke"  transform=" translate(-124.054405, -75.5150959581496)" d="M 127.95301 60.27405 C 116.34895 59.12343 109.56771 60.506620000000005 109.56771 60.506620000000005 L 106.36070000000001 63.02817 L 105.23459000000001 87.36235 C 105.23459000000001 87.36235 113.43575000000001 89.70026 123.92584000000001 90.71625 C 128.49161 91.15689 132.24946 91.24257 135.04027000000002 91.2059 L 138.96951 88.88016 L 142.87422 63.83601 C 142.87421 63.836 139.54475 61.42466 127.95301 60.27405 z M 134.02426 87.1787 C 134.02426 87.1787 133.10623 87.3746 131.17227 87.43577 C 129.5932 87.4847 127.31648 87.46021 124.2931 87.1787 C 117.622 86.55442000000001 112.08926 85.52626000000001 112.08926 85.52626000000001 L 112.78698 69.39326000000001 L 113.04405 63.370860000000015 C 113.04405 63.370860000000015 117.879 63.39536000000002 124.64805 63.79933000000001 C 132.54319999999998 64.27673000000001 137.20685 65.43951000000001 137.20685 65.43951000000001 L 134.02426 87.1787 z" stroke-linecap="round" />
</g>
		<g transform="matrix(1 0 0 1 -5.763616618194277 68.26433999913807)" id="Path-05_00000119087447553376929560000012159163891777860998_"  >
<path style="stroke: none; stroke-width: 1; stroke-dasharray: none; stroke-linecap: butt; stroke-dashoffset: 0; stroke-linejoin: miter; stroke-miterlimit: 4; fill: rgb(104,44,0); fill-rule: nonzero; opacity: 1;"  paint-order="stroke"  transform=" translate(-114.63687872565397, -193.2643399991381)" d="M 129.44632 196.78043 L 128.13656999999998 194.99329 L 123.03229999999998 196.70691 L 123.93808999999997 200.23219 C 123.37506999999998 200.45259000000001 122.78747999999997 200.63617 122.15101999999997 200.80754 C 121.84499999999997 199.81607 121.36759999999997 198.32268 121.20847999999998 197.80861 C 121.19622999999999 197.77191 121.19622999999999 197.74740999999997 121.18396999999997 197.72292 C 121.17171999999998 197.66172999999998 121.15954999999997 197.63723 121.15954999999997 197.63723 L 115.62679999999997 198.62869999999998 L 115.59003999999997 198.62869999999998 L 115.59003999999997 201.72558999999998 C 115.28401999999997 201.75009999999997 114.96583999999997 201.75009999999997 114.64756999999997 201.75009999999997 C 114.32928999999997 201.75009999999997 114.01102999999998 201.75009999999997 113.71726999999997 201.72558999999998 L 113.71726999999997 198.71438999999998 L 108.16000999999997 197.71065 C 108.16000999999997 197.71065 108.14782999999997 197.73516999999998 108.13558999999997 197.79636 C 108.12333999999997 197.82084999999998 108.12333999999997 197.84536 108.11107999999996 197.88205 C 107.95194999999995 198.37169 107.48679999999996 199.81607 107.16852999999996 200.81978999999998 C 106.54432999999996 200.66065999999998 105.96897999999996 200.46475999999998 105.40588999999996 200.25670999999997 L 106.26273999999995 196.81711999999996 L 106.27498999999995 196.79260999999997 L 106.27498999999995 196.78041999999996 L 106.26273999999995 196.78041999999996 L 106.25048999999996 196.76816999999997 L 101.20738999999996 195.09122999999997 L 101.17070999999996 195.07897999999997 L 101.17070999999996 195.09122999999997 L 99.83645999999996 196.78041999999996 C 95.79709999999996 193.02257999999998 95.79709999999996 188.21205999999995 98.06156999999996 185.27429999999995 C 98.45325999999996 185.12741999999994 98.84498999999997 185.02946999999995 99.21217999999996 184.95602999999994 C 99.33461999999996 184.91934999999995 99.45699999999997 184.89483999999993 99.56720999999996 184.88258999999994 C 99.61613999999996 184.87033999999994 99.66514999999995 184.85809999999995 99.71407999999997 184.85809999999995 C 100.42405999999997 184.74797999999996 101.08500999999997 184.76022999999995 101.70928999999997 184.84590999999995 L 100.21591999999997 189.53398999999996 L 106.98496999999998 192.47172999999995 L 108.04988999999998 188.67712999999995 L 108.04988999999998 188.66494999999995 C 108.18451999999998 188.78732999999994 108.30695999999998 188.92194999999995 108.44158999999998 189.04440999999994 C 109.12704999999998 189.70535999999996 109.78801999999997 190.35414999999995 110.47347999999998 190.92941999999994 C 110.70604999999998 191.12523999999993 110.95086999999998 191.32112999999993 111.19570999999998 191.49251999999993 C 111.37926999999998 191.62714999999992 111.56290999999997 191.76177999999993 111.75872999999997 191.87195999999992 C 111.94237999999997 191.9943499999999 112.12599999999998 192.0922799999999 112.30956999999997 192.1902399999999 C 112.41976999999997 192.2514099999999 112.51771999999997 192.3003599999999 112.62783999999996 192.3371199999999 C 113.26437999999996 192.6186099999999 113.93758999999996 192.7899999999999 114.64756999999996 192.7899999999999 C 117.18136999999996 192.7899999999999 119.15206999999995 190.6723399999999 121.29416999999997 188.6281999999999 L 122.33458999999996 192.3615499999999 L 129.09137999999996 189.4361199999999 L 127.63475999999996 184.8459099999999 C 128.65073999999996 184.71120999999988 129.75235999999995 184.79689999999988 130.98865999999995 185.1886099999999 C 131.57617999999997 185.86182999999988 132.04132999999996 186.6574799999999 132.33509999999995 187.5143499999999 C 132.34734999999995 187.5387799999999 132.34734999999995 187.55101999999988 132.34734999999995 187.5632699999999 C 133.28986 190.34192 132.59215 193.83043 129.44632 196.78043 z" stroke-linecap="round" />
</g>
		<g transform="matrix(1 0 0 1 -5.6836953438482425 -9.451134125239292)" id="Path-04_00000161606671804377539850000015133571597392853409_"  >
<path style="stroke: none; stroke-width: 1; stroke-dasharray: none; stroke-linecap: butt; stroke-dashoffset: 0; stroke-linejoin: miter; stroke-miterlimit: 4; fill: rgb(255,194,90); fill-rule: nonzero; opacity: 1;"  paint-order="stroke"  transform=" translate(-114.7168, -115.54886587476071)" d="M 89.63827 162.69388 C 92.45172000000001 162.69388 94.73247 164.97461 94.73247 167.78809 C 94.73247 170.60154 92.45172000000001 172.88227 89.63827 172.88227 C 86.82482 172.88227 84.54407 170.60154 84.54407 167.78809 C 84.54408 164.97461 86.82482 162.69388 89.63827 162.69388 z M 138.58217 162.69388 C 141.39562999999998 162.69388 143.67638 164.97461 143.67638 167.78809 C 143.67638 170.60154 141.39562999999998 172.88227 138.58217 172.88227 C 135.76872 172.88227 133.48798 170.60154 133.48798 167.78809 C 133.48798 164.97461 135.76872 162.69388 138.58217 162.69388 z M 144.88953 62.62111 L 140.62993 90.88429 C 140.62993 90.88429 138.64682 91.15383999999999 135.03592 91.20284 C 133.82413 90.0272 132.52655000000001 88.76670999999999 131.16802 87.43267 C 133.10198000000003 87.3711 134.02001 87.17567 134.02001 87.17567 L 138.20632 64.5056 C 138.20632 64.5056 136.00297 63.40408 125.62303 62.89008 C 115.24309 62.376079999999995 112.08494 62.596599999999995 112.08494 62.596599999999995 L 112.08494 68.70432 C 109.99185 66.62378 108.0455 64.70164 106.35646 63.024539999999995 L 106.52768999999999 59.21789999999999 C 106.52768999999999 59.21789999999999 112.39095999999999 57.58980999999999 126.32066999999999 58.483349999999994 C 140.23813 59.36496 144.88953 62.62111 144.88953 62.62111 z" stroke-linecap="round" />
</g>
		<g transform="matrix(1 0 0 1 5.2531646561517675 -49.886817310460145)" id="Path-03_00000011752207862980979140000006537223632058721970_"  >
<path style="stroke: none; stroke-width: 1; stroke-dasharray: none; stroke-linecap: butt; stroke-dashoffset: 0; stroke-linejoin: miter; stroke-miterlimit: 4; fill: rgb(119,70,27); fill-rule: nonzero; opacity: 1;"  paint-order="stroke"  transform=" translate(-125.65366000000002, -75.11318268953985)" d="M 118.15591 64.37087 L 117.22470000000001 84.22576 C 117.22470000000001 84.22576 120.53493000000002 85.97399 125.62298000000001 85.84911 C 130.71104000000003 85.72425 132.20951000000002 84.97501 132.20951000000002 84.97501 L 134.08262000000002 66.24399 L 118.15591 64.37087 z" stroke-linecap="round" />
</g>
		<g transform="matrix(1 0 0 1 32.91853807457894 -66.76395424862034)" id="Path-02_00000005953035595252120100000012647060148970928780_"  >
<path style="stroke: none; stroke-width: 1; stroke-dasharray: none; stroke-linecap: butt; stroke-dashoffset: 0; stroke-linejoin: miter; stroke-miterlimit: 4; fill: rgb(128,113,164); fill-rule: nonzero; opacity: 1;"  paint-order="stroke"  transform=" translate(-153.31903341842718, -58.236045751379656)" d="M 121.36761 41.48479 C 118.31974 40.860589999999995 114.47618 40.28525 113.58265 37.31081 C 113.06849 35.609359999999995 113.86416 33.76103 115.01477 32.40235 C 116.16538 31.04367 117.67095 30.02769 118.9195 28.7792 C 123.41176 24.29912 124.37873 17.59134 128.47937 12.85426 C 132.72679 7.92129 139.66722 14.54346 140.56074999999998 19.43967 C 141.41761 24.17675 139.05521 29.5136 141.52775 33.63865 C 142.37234 35.03409 143.71885 36.13569 144.28187 37.66576 C 145.16322 40.01599 143.89016 42.70886 142.01739 44.37362 C 141.5155 44.82651 140.95246 45.25491 140.67097 45.879180000000005 C 139.94874000000002 47.48268 141.56449 49.135130000000004 143.04556000000002 50.10217000000001 C 144.51443000000003 51.06915000000001 146.27708 52.42783000000001 145.92212000000004 54.15378000000001 C 145.49367000000004 56.30813000000001 142.49480000000003 56.45501000000001 140.34044000000003 56.075550000000014 C 137.19463000000002 55.52471000000001 134.06107000000003 54.986120000000014 130.91522000000003 54.435290000000016 C 129.39741000000004 54.16603000000001 127.52457000000004 53.554000000000016 127.37769000000003 52.011690000000016 C 127.16962000000002 50.004230000000014 130.18081000000004 48.927050000000015 130.31544000000002 46.90741000000001 C 130.41339000000002 45.51197000000001 129.07914000000002 44.471480000000014 127.84282000000002 43.81052000000001 C 125.81093 42.73335 123.61982 41.93775 121.36761 41.48479 z M 193.14607 92.98071 C 192.9135 92.39318 192.22804000000002 92.17286 191.61601000000002 92.05041 C 187.99278 91.35276 184.25944 91.90353999999999 180.57502000000002 92.07492 C 176.03376000000003 92.28298000000001 171.77407000000002 89.93281 167.48989000000003 91.18139000000001 C 162.18972000000002 92.72371000000001 156.93856000000002 94.26602000000001 151.51601000000002 95.39214000000001 C 140.89125 97.59542000000002 130.03391000000002 98.68484000000001 119.17649000000003 98.62365000000001 C 118.57672000000002 98.62365000000001 117.92801000000003 98.63583000000001 117.43835000000003 98.99085000000001 C 116.65494000000002 99.55387 116.69170000000003 100.81467 117.26697000000003 101.59809000000001 C 117.84231000000003 102.36925000000001 118.79705000000003 102.77314000000001 119.70290000000003 103.09139000000002 C 123.84020000000002 104.52352000000002 128.24677000000003 104.89078000000002 132.60439000000002 105.12336000000002 C 152.75232000000003 106.15152000000002 173.51221000000004 103.98492000000002 191.616 95.09836000000001 C 192.48503 94.6699 193.48877 93.87431 193.14607 92.98071 z" stroke-linecap="round" />
</g>
		<g transform="matrix(1 0 0 1 0.07817701105517472 -0.015207192687284987)" id="Path-01_00000161622497415357922770000002606077489225456308_"  >
<path style="stroke: none; stroke-width: 1; stroke-dasharray: none; stroke-linecap: butt; stroke-dashoffset: 0; stroke-linejoin: miter; stroke-miterlimit: 4; fill: rgb(0,0,0); fill-rule: nonzero; opacity: 1;"  paint-order="stroke"  transform=" translate(-120.47867235490342, -124.98479280731272)" d="M 233.27101 78.38351 C 232.08372 77.28104 230.35124 77.81412 226.547 78.97715 C 222.02799 80.37044999999999 214.45589 82.69658 202.40106 83.96866999999999 C 186.17856 85.67697999999999 175.89261 85.97985999999999 169.95604 85.88291 C 169.39879 84.08986 167.73891 80.18867 163.15935 76.08162 L 156.35050999999999 43.92737 C 159.65796999999998 45.514480000000006 166.10335999999998 47.70736 174.35394 46.05969 C 183.25879 44.27877 187.06295 40.01413 187.6203 36.900470000000006 C 187.98372999999998 34.87722000000001 187.14776999999998 33.05991 185.31832999999997 31.945250000000005 C 181.38084999999998 29.522170000000006 175.74723999999998 30.963910000000006 173.74817 31.593940000000003 C 170.05299 28.18952 149.02071999999998 9.471250000000005 131.99855 6.999740000000003 C 125.72281 6.078960000000003 110.03345999999999 13.045300000000003 75.50461999999999 69.78163 C 70.60995999999999 72.28953000000001 68.17475999999999 74.77316 67.22979999999998 75.92413 C 57.767699999999984 74.55509 36.00844999999998 71.96238000000001 22.58459999999998 74.73677 C 8.59136 77.62025 7.12544 88.7664 7.00425 90.26869 C 6.99212 90.31721 6.99212 90.35352 6.99212 90.37778 C 6.32579 94.88467 10.85693 101.13623 20.46441 108.98697 C 25.783070000000002 113.33643 31.28351 117.0316 33.65807 118.57021 C 23.40851 129.61948 15.872700000000002 143.09179 12.892290000000003 156.72158000000002 C 7.840200000000003 179.80135 16.272520000000004 199.57366000000002 36.67478 212.42806000000002 C 45.38574 221.91442 57.46481 228.699 71.61555999999999 232.0671 C 83.68249999999999 239.25152 98.70551999999999 243.04363 115.07341999999998 243.04363 C 130.73859 243.04363 145.26491 239.53014000000002 157.10165999999998 232.90307 C 157.61048 232.80613000000002 158.11938999999998 232.70918 158.64033999999998 232.58807000000002 C 175.73511 229.02613000000002 190.16447999999997 220.37574 199.32371999999998 208.2725 L 199.33584 208.26037 C 215.36453 195.49079 221.72511 177.18440999999999 217.24240999999998 156.72158 C 214.91620999999998 146.0358 209.69447999999997 135.24097 202.46162999999999 125.65773999999999 C 215.13432999999998 117.66154999999999 222.11273999999997 99.83988 223.19101999999998 96.92003 C 228.90953 92.93409 232.47144999999998 88.56045999999999 233.44066999999998 84.21101999999999 C 234.09485 81.29124 234.40987 79.43755 233.27101 78.38351 z M 164.01956 80.44315 C 166.00642000000002 82.78141000000001 166.98776 84.84103 167.44815 86.07683 C 164.38300999999998 86.4524 156.15662 87.26412 142.44208 87.25199 L 145.1559 69.2243 C 155.5751 72.45909 161.14822 77.07504 164.01956 80.44315 z M 139.57066 90.07488 C 137.52324000000002 90.26868999999999 132.08337 90.58371 124.20837 89.82042999999999 C 116.05474000000001 89.03297999999998 109.24591000000001 87.39735999999999 106.84708 86.77945999999999 L 108.03437000000001 60.84046999999998 C 110.08187000000001 60.45276999999998 115.90936 59.66522999999998 126.38920000000002 60.33164999999998 C 136.83265000000003 60.997979999999984 141.87261 63.04547999999998 143.52029000000002 63.86931999999998 L 139.57066 90.07488 z M 131.65936 9.39857 C 148.29373999999999 11.82165 169.94392 31.388009999999998 172.39124999999999 33.65358 C 172.88794 35.53145 172.92433 37.57895 172.24586 39.444689999999994 C 173.56647999999998 37.918209999999995 174.28125 35.919149999999995 174.54783 33.88376999999999 C 176.29243 33.33856999999999 181.04165 32.15127999999999 184.04623 34.00489999999999 C 185.02758 34.59853999999999 185.42741 35.43450999999999 185.23352 36.476479999999995 C 184.79739 38.93586 181.05377 42.243339999999996 173.88141 43.673019999999994 C 164.24975999999998 45.59931999999999 157.17435 41.72239 155.63567999999998 40.77741999999999 C 155.06627999999998 38.91160999999999 154.58163 36.997429999999994 154.21818 35.07104999999999 C 153.84259999999998 33.07205999999999 153.46705 30.842799999999993 153.73354999999998 28.867979999999992 C 153.79416999999998 28.492399999999993 153.96373999999997 28.104709999999994 154.26663 27.94719999999999 C 154.44838 27.83819999999999 154.75126 27.95932999999999 155.02991 28.28645999999999 C 156.93202 30.98816999999999 154.93303 34.13813999999999 155.4903 37.19123999999999 C 157.50148 35.688939999999995 157.51362 33.047799999999995 157.33185 30.794359999999994 C 157.1259 29.170869999999994 155.98706 26.142019999999995 153.78206 26.917419999999993 C 153.01878 27.292999999999992 152.72803 28.019889999999993 152.57051 28.60147999999999 C 151.49161 32.184099999999994 152.78859 38.79047999999999 152.78859 38.79047999999999 L 160.17894 73.69487999999998 C 156.66551 71.18697999999998 151.91624000000002 68.73972999999998 145.53148000000002 66.78909999999999 L 146.14938 62.65778999999999 L 145.53148000000002 62.22164999999999 C 145.33759 62.08832999999999 140.50359 58.80509999999999 126.53459000000001 57.908579999999986 C 112.71091000000001 57.036239999999985 106.79860000000001 58.61121999999999 106.54423000000001 58.68390999999998 L 105.70826000000001 58.91409999999998 L 105.52651000000002 62.93640999999998 C 93.75039000000001 63.57855999999998 85.34232000000002 65.66236999999998 79.43001000000001 68.01275999999999 C 102.94591 29.87358 122.33051 8.01739 131.65936 9.39857 z M 105.40536 65.38374 L 104.58153 83.38717 C 89.64324 80.8066 75.20174 77.65662 70.02844999999999 76.49352 C 73.15424 73.51311 82.72534 66.65585 105.40536 65.38374 z M 21.97883 107.09697 C 13.28 99.98525 8.80943 94.14564 9.40315 90.66853 C 9.45158 90.36565 9.54853 90.06276 9.68178 89.78414000000001 C 14.20079 80.6491 23.39639 78.60159 33.028130000000004 79.53450000000001 C 31.743830000000003 81.00049000000001 30.810990000000004 82.86623 30.992680000000004 84.80466000000001 C 31.174440000000004 82.61177 32.71312 80.86716000000001 34.46978 79.70413 C 34.91812 79.75256 35.35425 79.82525000000001 35.80252 79.88583000000001 C 33.42787 81.86064000000002 32.252720000000004 85.54377000000001 31.96196 88.46354000000001 C 33.18555 85.83453000000002 35.487500000000004 81.56989000000002 38.67385 81.87278 C 37.280550000000005 83.41145 35.69344 85.73758000000001 35.42694 88.57261000000001 C 35.13618 91.49238000000001 36.29921 94.32741000000001 38.85561 96.98068 C 40.70923 98.90699000000001 42.50228 100.40928000000001 44.15002 101.58452000000001 C 38.34671 98.62837000000002 33.234049999999996 94.00028000000002 33.90039 87.10662 C 31.840760000000003 96.03565 39.92169 102.63855000000001 47.23943 106.53965000000001 C 47.27574 106.5639 47.29999 106.57603 47.336369999999995 106.58816 C 47.299989999999994 106.58816 47.263679999999994 106.57604 47.21518 106.55178000000001 C 40.479029999999995 104.57696000000001 32.3981 98.59196000000001 32.652469999999994 90.99569000000001 C 31.671129999999994 98.34965000000001 38.564789999999995 105.04949 45.046549999999996 108.17529000000002 C 44.767849999999996 108.38123000000002 44.489219999999996 108.59929000000002 44.210589999999996 108.81736000000002 C 38.068079999999995 106.51548000000003 32.4344 102.61429000000003 30.992679999999996 95.81759000000002 C 32.022529999999996 102.60217000000003 37.31695 106.91525000000003 43.205 109.61703000000003 C 40.454789999999996 111.84622000000003 37.8379 114.24510000000002 35.35426 116.78932000000003 C 33.29463 115.45661 27.53983 111.64024 21.97883 107.09697 z M 39.89753 80.66121 C 39.90966 80.66121 39.90966 80.64909 39.90966 80.64909 L 39.90966 80.67334 L 39.89753 80.66121 z M 15.25482 157.24252 C 19.386200000000002 138.36676 32.54349 119.79386000000002 49.49288 107.89655000000002 C 36.15384 121.28410000000002 26.340419999999998 139.72368000000003 22.89962 158.59944000000002 C 19.65271 176.48175 22.52404 192.51037000000002 31.21082 205.48596 C 16.69655 193.34633 11.05081 176.50594 15.25482 157.24252 z M 197.51852 206.67325 C 189.57084 217.22576999999998 177.45547 225.06438 163.01396 229.05031 C 176.64377 218.92188 185.59703 203.02651 187.32953 186.07711999999998 C 184.61571 204.759 173.06972000000002 221.84171999999998 156.25357 230.60111999999998 L 156.08392 230.69805999999997 L 156.07188 230.69805999999997 C 144.56226999999998 237.17974999999996 130.39938 240.62055999999995 115.07341 240.62055999999995 C 99.06897 240.62055999999995 84.42151999999999 236.91323999999994 72.69385 229.89838999999995 C 56.89534999999999 221.24800999999994 45.91882 205.02556999999996 42.98692 187.27651999999995 C 44.88905 203.09919999999994 53.0548 217.90423999999996 65.48519 227.80245999999994 C 54.629780000000004 224.17997999999994 45.36157 218.34035999999995 38.358850000000004 210.68342999999993 C 26.098090000000006 197.28382999999994 21.579080000000005 179.41364999999993 25.286380000000005 159.02345999999994 C 29.454070000000005 136.13749999999993 43.24137 113.91793999999994 61.26906000000001 101.02715999999995 C 65.25500000000001 98.16794999999995 69.3863 95.85386999999996 73.54188 94.12137999999996 C 74.94730000000001 94.77564999999996 76.35265000000001 95.42984999999996 77.75807 96.07201999999995 C 69.36213000000001 103.37753999999995 62.67441 112.28231999999996 57.50112 121.82924999999994 C 64.00707 112.35508999999995 72.02745 103.93488999999994 81.39269 97.71969999999995 C 83.51288 98.67678999999994 85.6452 99.62182999999995 87.78957 100.53047999999994 C 77.40668 107.21811999999994 69.55593999999999 117.18912999999995 62.67442 127.30543999999995 C 69.95577 117.27394999999994 78.29115 107.37562999999994 89.11018 101.09986999999995 C 89.86133 101.41486999999995 90.61248 101.72988999999995 91.37575 102.04490999999996 C 85.16056 105.76433999999996 80.09635 111.28893999999995 76.1831 117.34663999999995 C 80.53246999999999 111.32525999999996 86.05708999999999 105.92176999999995 92.72055 102.59003999999995 C 110.05764 109.62913999999995 128.23071 114.79023999999994 150.00209 114.79023999999994 C 154.83609 114.79023999999994 159.86394 114.54798999999994 165.09779 113.99064999999995 L 171.07066 119.34562999999994 L 168.65971 113.57869999999994 C 172.28218999999999 113.14256999999994 175.79568 112.63374999999994 179.18796999999998 112.06427999999994 C 187.47492999999997 124.82179999999994 192.79358999999997 139.26331999999994 196.14949 154.04408999999993 C 194.38071 138.96043999999992 188.89240999999998 123.98583999999992 179.40604 112.02797999999993 C 180.62969999999999 111.82203999999993 181.84125 111.60389999999992 183.04066999999998 111.37370999999993 C 195.30140999999998 124.43412999999993 204.12142999999998 141.75908999999993 207.25936 159.02349999999993 C 210.59106 177.31772 207.21083 193.79459 197.51852 206.67325 z M 214.87988 157.24252 C 218.45393 173.58616 214.78293000000002 188.46379000000002 204.52125 200.02192000000002 C 210.65162 188.07616000000002 212.43255000000002 173.93746000000002 209.64602000000002 158.59943 C 206.81100000000004 142.98270000000002 199.44491000000002 127.32966000000002 189.12258000000003 114.65694000000002 C 202.0618 126.36046 211.52391 141.90442 214.87988 157.24252 z M 200.95934 123.74348 C 200.41413 123.04077000000001 199.84465 122.35025 199.27527 121.67173000000001 C 200.34143 121.18716 201.91643000000002 120.04831000000001 204.38794000000001 117.66154000000002 C 210.00948000000002 112.19757000000001 212.79599000000002 103.43810000000002 212.90508000000003 103.06253000000001 L 213.06258000000003 102.54159000000001 L 213.07470000000004 102.54159000000001 C 213.91067000000004 102.16602000000002 218.35700000000003 99.92470000000002 219.65336000000005 99.16142 C 217.01221 105.2191 210.63951 117.75849 200.95934 123.74348 z M 231.07814 83.69005 C 229.90297999999999 88.92391 223.84528999999998 94.58177 214.44374 99.20985999999999 C 202.76451 104.95253 186.08159999999998 109.18078 166.17606 111.43431 C 125.74707000000001 116.02601 97.80902 102.86872 68.22328 88.94817 C 65.72751000000001 87.77294 63.195370000000004 86.58565 60.651180000000004 85.39837 C 45.4827 78.33509 32.94332 75.63332 23.37214 77.34162 C 20.730990000000002 77.81414000000001 18.48968 78.58947 16.57544 79.55875 C 18.2958 78.52890000000001 20.42813 77.65664000000001 23.06926 77.11142000000001 C 36.39618 74.36121000000001 58.45829 77.07504000000002 67.46000000000001 78.40778 L 67.48418000000001 78.40778 C 67.48418000000001 78.40778 67.50843 78.40778 67.55694000000001 78.4199 C 67.56899000000001 78.4199 67.56899000000001 78.4199 67.58112000000001 78.4199 C 69.02285000000002 78.75909 86.42051000000001 82.73297 104.47245000000001 85.82238 L 104.3392 88.59676999999999 L 105.25998 88.86334 C 105.58704 88.96021999999999 113.59535 91.22586 123.97817 92.23137999999999 C 127.90362 92.61908999999999 131.23534 92.74029999999999 133.86435 92.74029999999999 C 138.18956 92.74029999999999 140.63681 92.41317 140.79431 92.38889999999999 L 141.69084 92.26777 L 142.07855 89.67507 L 143.02359 89.67507 C 159.90028 89.67507 168.19929000000002 88.43928000000001 169.1322 88.29390000000001 C 169.14433000000002 88.29390000000001 169.15645 88.29390000000001 169.15645 88.29390000000001 C 175.03238000000002 88.42722 185.5849 88.18491 202.65543000000002 86.37972 C 214.94043000000002 85.07124 222.65792000000002 82.70872 227.26175000000003 81.29125 C 229.07906000000003 80.73392000000001 230.94487000000004 80.16453 231.59908000000004 80.20083000000001 C 231.67177 80.66121 231.49008 81.83645 231.07814 83.69005 z M 176.70992 39.47651 L 176.47973000000002 39.415949999999995 C 176.73417 37.48965 176.22535000000002 35.50270999999999 174.84417000000002 34.10941 L 175.00169000000002 33.927719999999994 C 176.68574000000004 33.38251999999999 178.15165000000002 34.41228999999999 178.59991000000002 35.89039999999999 C 178.99974 37.39271 178.36971 38.87074 176.70992 39.47651 z M 101.78288 163.53041 L 101.09229 163.23964999999998 C 91.04859 158.97501999999997 82.97979000000001 153.03844999999998 78.37596 146.4962 L 77.92769000000001 145.85405 C 76.92210000000001 144.33963 76.11038 142.80095 75.52879000000001 141.28653 L 75.09266000000001 140.13562 L 73.94169000000001 140.59600999999998 C 65.33980000000001 144.13367999999997 58.84598000000001 154.67406999999997 58.84598000000001 165.14171 C 58.84598000000001 177.18439999999998 67.69018000000001 185.59247 80.33865000000002 185.59247 C 84.15494000000001 185.59247 87.80169000000002 184.79288 90.91535000000002 183.25421 C 90.98805000000002 183.23002 91.06073000000002 183.19363 91.13342000000002 183.15726 C 97.94225000000002 179.75284000000002 101.84344000000002 173.18634 101.84344000000002 165.14171000000002 C 101.84345 164.85095 101.78288 163.53041 101.78288 163.53041 z M 80.33866 183.1694 C 68.93805 183.1694 61.26907 175.9244 61.26907 165.14171 C 61.26907 156.05517999999998 66.56348 146.93233999999998 73.76003 143.34616 C 74.31729 144.58194 75.00788 145.81772999999998 75.81959 147.02927 C 71.24002 151.59673 68.44137 158.35712 68.44137 164.92365 C 68.44137 174.27675000000002 74.32942 181.2067 83.22215 182.98771000000002 C 82.27708 183.10883 81.32 183.1694 80.33866 183.1694 z M 90.18846 172.35037 C 87.40186 172.35037 85.13628 170.09692 85.13628 167.31038999999998 C 85.13628 164.52388 87.40185 162.27034999999998 90.18845999999999 162.27034999999998 C 92.96285999999999 162.27034999999998 95.22841999999999 164.52387 95.22841999999999 167.31038999999998 C 95.22842 170.09692 92.96285 172.35037 90.18846 172.35037 z M 155.86588 140.59601 L 154.72703 140.13562000000002 L 154.27876 141.28653000000003 C 153.63669000000002 142.97058000000004 152.69165 144.69095000000002 151.49225 146.41138000000004 C 146.92473 152.96576000000005 138.83167 158.93865000000002 128.72748 163.23966000000004 L 128.02477000000002 163.53042000000005 C 128.02477000000002 163.53042000000005 127.97633000000002 164.85096000000004 127.97633000000002 165.14172000000005 C 127.97633000000002 173.15004000000005 131.85320000000002 179.70443000000006 138.61361000000002 183.13308000000006 L 138.62573000000003 183.13308000000006 C 138.69842000000003 183.16941000000006 138.77112000000002 183.20577000000006 138.84381000000002 183.23003000000006 C 141.98172000000002 184.78077000000005 145.64050000000003 185.59247000000005 149.46902000000003 185.59247000000005 C 162.12959000000004 185.59247000000005 170.96168000000003 177.18440000000004 170.96168000000003 165.14171000000005 C 170.96165 154.67407 164.46782 144.13368 155.86588 140.59601 z M 138.6257 172.35037 C 135.83919 172.35037 133.58574 170.09692 133.58574 167.31038999999998 C 133.58574 164.52388 135.83918999999997 162.27034999999998 138.6257 162.27034999999998 C 141.41221000000002 162.27034999999998 143.66568 164.52387 143.66568 167.31038999999998 C 143.66568 170.09692 141.41222 172.35037 138.6257 172.35037 z M 149.46899 183.1694 C 148.52394999999999 183.1694 147.59111 183.10882 146.67032999999998 182.99983 C 155.61148999999997 181.24309 161.52379999999997 174.28886 161.52379999999997 164.92364 C 161.52379999999997 158.32073 158.68875999999997 151.52403 154.06067999999996 146.93234 C 154.84821999999997 145.74504000000002 155.51453999999995 144.53352 156.04761999999997 143.34616 C 163.24414999999996 146.93234 168.53856999999996 156.05517 168.53856999999996 165.14171 C 168.53857 175.92441 160.88164 183.1694 149.46899 183.1694 z M 137.43187 190.25238 C 136.86249 187.17508999999998 135.0088 184.78832999999997 132.33127000000002 183.69799999999998 C 132.14960000000002 183.62530999999998 131.56807 183.40722999999997 131.45900000000003 183.37085 C 130.11421000000004 182.94683999999998 128.85417000000004 182.82564 127.61845000000004 182.99526999999998 L 126.17672000000003 183.17702999999997 L 127.72744000000003 188.05948999999998 L 123.31750000000002 189.96159999999998 L 122.11803000000002 185.66066999999998 L 120.13116000000002 187.56277999999998 C 118.30173000000002 189.31945 116.72674000000002 190.84599999999998 114.92149000000002 190.84599999999998 C 113.08001000000002 190.84599999999998 111.50502000000002 189.30740999999998 109.67559000000001 187.53853999999998 L 107.77346000000001 185.68483999999998 L 106.53767000000002 190.07068999999998 L 102.11561000000002 188.15642999999997 L 103.70271000000002 183.20120999999997 L 102.28516000000002 182.99525999999997 C 101.66726000000001 182.91044999999997 101.03731000000002 182.88620999999998 100.39516000000002 182.94682999999998 C 99.93477000000001 182.99525999999997 99.47439000000001 183.08008999999998 99.00193000000002 183.20120999999997 C 98.71110000000002 183.27389999999997 97.48750000000001 183.69798999999998 97.48750000000001 183.69798999999998 C 94.80997 184.78831999999997 92.95629000000001 187.18719999999996 92.38691000000001 190.26448999999997 C 91.63576000000002 194.37161999999998 93.29555000000002 198.78162999999998 96.82111000000002 202.05272999999997 L 98.03264000000001 203.17944999999997 L 98.73535000000001 201.67716 C 98.97767000000002 201.15621 99.23212000000001 200.62312999999997 99.43807000000001 200.19912 L 103.47250000000001 201.54390999999998 L 102.43052000000002 205.66315999999998 L 103.44824000000001 206.03874 C 104.16301000000001 206.31736999999998 104.90210000000002 206.54755999999998 105.68956000000001 206.74139 L 106.79209000000002 207.03221 L 107.14342000000002 205.95392999999999 C 107.41000000000003 205.11795999999998 107.74919000000003 204.02754 108.00364000000002 203.25214999999997 L 112.59534000000002 204.06392999999997 L 112.59534000000002 207.78336999999996 L 113.72206000000003 207.85604999999995 C 114.10977000000003 207.89236999999994 114.50959000000003 207.89236999999994 114.92147000000003 207.89236999999994 C 115.33343000000002 207.89236999999994 115.72113000000003 207.89236999999994 116.12096000000003 207.85604999999995 L 117.25981000000003 207.78336999999996 L 117.25981000000003 203.967 L 121.86362000000003 203.14316000000002 C 122.11800000000002 203.967 122.46939000000003 205.09371000000002 122.73590000000003 205.92967000000002 L 123.09935000000003 207.04426 L 124.22614000000003 206.72932 C 125.02572000000004 206.49913 125.77687000000003 206.25682 126.44320000000003 206.00236 L 127.46092000000003 205.61465 L 126.39475000000003 201.44697000000002 L 130.40494000000004 200.09005000000002 C 130.62300000000005 200.53831000000002 130.88957000000005 201.08352000000002 131.14395000000005 201.62872000000002 L 131.85879000000006 203.14315000000002 L 133.07032000000007 201.99216 C 136.5596 198.72101 138.18303 194.32312 137.43187 190.25238 z M 97.72977 198.17589 C 97.72977 198.17589 97.56021 198.53932 97.30577 199.06027 C 95.19771 196.54025000000001 94.25268 193.51141 94.77362 190.70064 C 94.95537999999999 189.68299 95.33094999999999 188.77434 95.86403999999999 188.01106 C 95.52483999999998 190.67645 96.36080999999999 193.71735999999999 98.88076 196.34644999999998 L 97.72977 198.17589 z M 104.17516 199.2299 L 100.66174000000001 198.05468 L 102.09134 195.76485 L 105.07168 196.75832 L 104.17516 199.2299 z M 108.66999 200.91389 L 109.37271 198.32124000000002 L 112.75288 198.91490000000002 L 112.64382 201.61661 L 108.66999 200.91389 z M 117.21131 201.51967 L 117.10231999999999 198.83007999999998 L 120.48249 198.24856999999997 L 121.17308 200.81701999999999 L 117.21131 201.51967 z M 125.66782 199.13297 L 124.77129000000001 196.68564 L 127.75170000000001 195.69217 L 129.18132000000003 197.94569 L 125.66782 199.13297 z M 132.57361 198.99971 C 132.3071 198.44237999999999 132.11322 198.0668 132.11322 198.0668 L 132.06477 197.96985 L 130.99861 196.2858 C 133.51863 193.62049 134.31822000000003 190.61581999999999 133.93051000000003 187.9868 C 134.48785000000004 188.75008 134.86343000000002 189.67086999999998 135.04518000000002 190.68850999999998 C 135.56613 193.4751 134.64536 196.49182 132.57361 198.99971 z M 120.22803 176.28339 L 118.61673 173.49678 C 117.84134 172.15199 116.46016 171.35242 114.90943 171.35242 C 113.37076 171.35242 111.97745 172.152 111.21419 173.49678 L 109.59078 176.29544 C 108.81537999999999 177.62817 108.8275 179.22742000000002 109.59078 180.5722 C 110.36618999999999 181.90486 111.74727999999999 182.69238 113.29809 182.69238 L 116.53288 182.69238 C 118.07155 182.69238 119.45272 181.90486 120.22806 180.5722 C 121.00343 179.22742 121.00343 177.62817 120.22803 176.28339 z M 118.1321 179.36066 C 117.79284 179.93006 117.19919999999999 180.26932 116.53286 180.26932 L 113.29807 180.26932 C 112.61959999999999 180.26932 112.02597 179.93006 111.69883 179.36066 C 111.3717 178.80333 111.35957 178.137 111.6504 177.56761 C 112.23191 177.99162 112.94668 178.24608 113.70996000000001 178.24608 L 116.12099 178.24608 C 116.87213000000001 178.24608 117.5869 177.99162 118.16848 177.57973 C 118.45924 178.16125 118.44711 178.80333 118.1321 179.36066 z M 137.54095 64.82193 C 137.34706 64.77342 132.71897 63.64668999999999 124.88037000000001 63.17417999999999 C 118.22904000000001 62.77441999999999 113.38289000000002 62.73803999999999 113.33438000000001 62.73803999999999 L 112.17136 62.73803999999999 L 111.11733000000001 86.88396999999999 L 112.15923000000001 87.07785999999999 C 112.20766 87.07785999999999 117.76864 88.10762999999999 124.34729000000002 88.72551999999999 C 126.58861000000002 88.93145999999999 128.43016 89.00415 129.89615 89.00415 C 132.81592 89.00415 134.24553 88.72551999999999 134.33035 88.70127 L 135.16632 88.53170999999999 L 138.60712 65.0884 L 137.54095 64.82193 z M 133.02187 86.43571 C 131.74976 86.56897000000001 128.98751000000001 86.72647 124.57749000000001 86.31459 C 121.31845000000001 85.99958 118.31386 85.59975 116.13303000000002 85.26056 L 116.27842000000003 68.54137 L 113.89172000000002 84.90917999999999 C 113.79477000000001 84.89712999999999 113.72208000000002 84.88501 113.63727000000002 84.87288 L 114.48535000000001 65.17327 C 116.29054000000001 65.20965 120.05847000000001 65.30653000000001 124.73499000000001 65.58523 C 130.19903000000002 65.91229 134.11226000000002 66.59075 135.88114000000002 66.94215 L 133.02187 86.43571 z M 118.29678 67.65063 C 119.12631 72.36812 119.13295 77.10475000000001 118.29691 81.82231 C 117.46059 77.10477 117.46701 72.36815 118.29678 67.65063 L 118.29678 67.65063 z M 37.14638 169.03467 C 36.97331 153.068 42.50913 136.99198 52.185230000000004 124.32247000000001 C 52.83677 123.47955 53.49918 122.64721000000002 54.168400000000005 121.82315000000001 C 44.68832 135.84508 38.64003 152.14659 37.14638 169.03467 L 37.14638 169.03467 z M 164.97247 120.79205 C 171.54701999999997 131.51808 174.29181999999997 144.32921 174.73826 156.79680000000002 C 172.62546 144.52171 170.0401 132.22464 164.97247 120.79205 L 164.97247 120.79205 z M 154.03958 206.67693 C 154.94447 215.18215 152.0616 223.88962 147.3799 230.93137 C 150.54607 223.12115 153.25421 215.11078 154.03958 206.67693 L 154.03958 206.67693 z" stroke-linecap="round" />
</g>
</g>
</g>
</svg>